REM DIRINDEX 1\6,1\2\7,1\2\8,1\2\9,1\3\10,1\3\11,1\4\12,1\4\13,1\4\14,1\5\15,1\5\16,1\5\17
REM DIRNAME folder01,folder02,folder03,folder04,folder05,folder06,folder07,folder08,folder09,folder10,folder11,folder12,folder13,folder14,folder15,folder16,folder17
TITLE ""
FILE "3Q_t2_0529-0544.mp3" MP3
  TRACK 01 AUDIO
    TITLE "7:cjc041_5003"
    INDEX 01 00:00:00
  TRACK 02 AUDIO
    TITLE "0:"
    INDEX 01 00:00:74
  TRACK 03 AUDIO
    TITLE "8:cjc041_5004"
    INDEX 01 00:01:58
  TRACK 04 AUDIO
    TITLE "0:"
    INDEX 01 00:03:12
  TRACK 05 AUDIO
    TITLE "9:cjc041_5005"
    INDEX 01 00:03:66
  TRACK 06 AUDIO
    TITLE "0:"
    INDEX 01 00:05:05
  TRACK 07 AUDIO
    TITLE "7:cjc041_5006"
    INDEX 01 00:06:67
  TRACK 08 AUDIO
    TITLE "0:"
    INDEX 01 00:08:11
  TRACK 09 AUDIO
    TITLE "8:cjc041_5007"
    INDEX 01 00:08:64
  TRACK 10 AUDIO
    TITLE "0:"
    INDEX 01 00:10:02
  TRACK 11 AUDIO
    TITLE "9:cjc041_5008"
    INDEX 01 00:10:55
  TRACK 12 AUDIO
    TITLE "0:"
    INDEX 01 00:11:74
  TRACK 13 AUDIO
    TITLE "7:cjc041_5009"
    INDEX 01 00:13:59
  TRACK 14 AUDIO
    TITLE "0:"
    INDEX 01 00:14:74
  TRACK 15 AUDIO
    TITLE "8:cjc041_5010"
    INDEX 01 00:15:52
  TRACK 16 AUDIO
    TITLE "0:"
    INDEX 01 00:16:69
  TRACK 17 AUDIO
    TITLE "9:cjc041_5011"
    INDEX 01 00:17:49
  TRACK 18 AUDIO
    TITLE "0:"
    INDEX 01 00:18:68
  TRACK 19 AUDIO
    TITLE "7:cjc041_5012"
    INDEX 01 00:20:41
  TRACK 20 AUDIO
    TITLE "0:"
    INDEX 01 00:21:60
  TRACK 21 AUDIO
    TITLE "8:cjc041_5013"
    INDEX 01 00:22:34
  TRACK 22 AUDIO
    TITLE "0:"
    INDEX 01 00:25:11
  TRACK 23 AUDIO
    TITLE "9:cjc041_5014"
    INDEX 01 00:25:60
  TRACK 24 AUDIO
    TITLE "0:"
    INDEX 01 00:27:00
  TRACK 25 AUDIO
    TITLE "7:cjc041_5015"
    INDEX 01 00:28:55
  TRACK 26 AUDIO
    TITLE "0:"
    INDEX 01 00:29:68
  TRACK 27 AUDIO
    TITLE "8:cjc041_5016"
    INDEX 01 00:30:36
  TRACK 28 AUDIO
    TITLE "0:"
    INDEX 01 00:31:59
  TRACK 29 AUDIO
    TITLE "9:cjc041_5017"
    INDEX 01 00:32:37
  TRACK 30 AUDIO
    TITLE "0:"
    INDEX 01 00:33:50
  TRACK 31 AUDIO
    TITLE "7:cjc041_5018"
    INDEX 01 00:35:23
  TRACK 32 AUDIO
    TITLE "0:"
    INDEX 01 00:36:62
  TRACK 33 AUDIO
    TITLE "8:cjc041_5019"
    INDEX 01 00:37:40
  TRACK 34 AUDIO
    TITLE "0:"
    INDEX 01 00:38:51
  TRACK 35 AUDIO
    TITLE "9:cjc041_5020"
    INDEX 01 00:39:29
  TRACK 36 AUDIO
    TITLE "0:"
    INDEX 01 00:41:00
  TRACK 37 AUDIO
    TITLE "7:cjc041_5021"
    INDEX 01 00:42:55
  TRACK 38 AUDIO
    TITLE "0:"
    INDEX 01 00:43:74
  TRACK 39 AUDIO
    TITLE "8:cjc041_5022"
    INDEX 01 00:44:50
  TRACK 40 AUDIO
    TITLE "0:"
    INDEX 01 00:45:51
  TRACK 41 AUDIO
    TITLE "9:cjc041_5023"
    INDEX 01 00:46:33
  TRACK 42 AUDIO
    TITLE "0:"
    INDEX 01 00:47:50
  TRACK 43 AUDIO
    TITLE "7:cjc041_5024"
    INDEX 01 00:49:25
  TRACK 44 AUDIO
    TITLE "0:"
    INDEX 01 00:50:44
  TRACK 45 AUDIO
    TITLE "8:cjc041_5025"
    INDEX 01 00:51:22
  TRACK 46 AUDIO
    TITLE "0:"
    INDEX 01 00:58:62
  TRACK 47 AUDIO
    TITLE "9:cjc041_5026"
    INDEX 01 00:59:43
  TRACK 48 AUDIO
    TITLE "0:"
    INDEX 01 01:00:57
  TRACK 49 AUDIO
    TITLE "7:cjc041_5027"
    INDEX 01 01:02:38
  TRACK 50 AUDIO
    TITLE "0:"
    INDEX 01 01:03:47
  TRACK 51 AUDIO
    TITLE "8:cjc041_5028"
    INDEX 01 01:04:27
  TRACK 52 AUDIO
    TITLE "0:"
    INDEX 01 01:06:71
  TRACK 53 AUDIO
    TITLE "9:cjc041_5029"
    INDEX 01 01:07:53
  TRACK 54 AUDIO
    TITLE "0:"
    INDEX 01 01:08:66
  TRACK 55 AUDIO
    TITLE "7:cjc041_5030"
    INDEX 01 01:10:51
  TRACK 56 AUDIO
    TITLE "0:"
    INDEX 01 01:11:60
  TRACK 57 AUDIO
    TITLE "8:cjc041_5031"
    INDEX 01 01:12:40
  TRACK 58 AUDIO
    TITLE "0:"
    INDEX 01 01:13:65
  TRACK 59 AUDIO
    TITLE "9:cjc041_5032"
    INDEX 01 01:14:51
  TRACK 60 AUDIO
    TITLE "0:"
    INDEX 01 01:15:60
  TRACK 61 AUDIO
    TITLE "7:cjc041_5033"
    INDEX 01 01:17:47
  TRACK 62 AUDIO
    TITLE "0:"
    INDEX 01 01:18:54
  TRACK 63 AUDIO
    TITLE "8:cjc041_5034"
    INDEX 01 01:19:36
  TRACK 64 AUDIO
    TITLE "0:"
    INDEX 01 01:21:53
  TRACK 65 AUDIO
    TITLE "9:cjc041_5035"
    INDEX 01 01:22:37
  TRACK 66 AUDIO
    TITLE "0:"
    INDEX 01 01:23:44
  TRACK 67 AUDIO
    TITLE "7:cjc041_5036"
    INDEX 01 01:25:25
  TRACK 68 AUDIO
    TITLE "0:"
    INDEX 01 01:26:44
  TRACK 69 AUDIO
    TITLE "8:cjc041_5037"
    INDEX 01 01:27:24
  TRACK 70 AUDIO
    TITLE "0:"
    INDEX 01 01:28:69
  TRACK 71 AUDIO
    TITLE "9:cjc041_5038"
    INDEX 01 01:29:48
  TRACK 72 AUDIO
    TITLE "0:"
    INDEX 01 01:30:71
  TRACK 73 AUDIO
    TITLE "7:cjc041_5039"
    INDEX 01 01:32:51
  TRACK 74 AUDIO
    TITLE "0:"
    INDEX 01 01:33:60
  TRACK 75 AUDIO
    TITLE "8:cjc041_5040"
    INDEX 01 01:34:34
  TRACK 76 AUDIO
    TITLE "0:"
    INDEX 01 01:36:03
  TRACK 77 AUDIO
    TITLE "9:cjc041_5041"
    INDEX 01 01:36:60
  TRACK 78 AUDIO
    TITLE "0:"
    INDEX 01 01:37:69
  TRACK 79 AUDIO
    TITLE "7:cjc041_5042"
    INDEX 01 01:39:49
  TRACK 80 AUDIO
    TITLE "0:"
    INDEX 01 01:40:62
  TRACK 81 AUDIO
    TITLE "8:cjc041_5043"
    INDEX 01 01:41:42
  TRACK 82 AUDIO
    TITLE "0:"
    INDEX 01 01:42:59
  TRACK 83 AUDIO
    TITLE "9:cjc041_5044"
    INDEX 01 01:43:33
  TRACK 84 AUDIO
    TITLE "0:"
    INDEX 01 01:44:50
  TRACK 85 AUDIO
    TITLE "7:cjc041_5045"
    INDEX 01 01:46:35
  TRACK 86 AUDIO
    TITLE "0:"
    INDEX 01 01:47:60
  TRACK 87 AUDIO
    TITLE "8:cjc041_5046"
    INDEX 01 01:48:32
  TRACK 88 AUDIO
    TITLE "0:"
    INDEX 01 01:50:68
  TRACK 89 AUDIO
    TITLE "9:cjc041_5047"
    INDEX 01 01:51:44
  TRACK 90 AUDIO
    TITLE "0:"
    INDEX 01 01:52:65
  TRACK 91 AUDIO
    TITLE "7:cjc041_5048"
    INDEX 01 01:54:46
  TRACK 92 AUDIO
    TITLE "0:"
    INDEX 01 01:55:56
  TRACK 93 AUDIO
    TITLE "8:cjc041_5049"
    INDEX 01 01:56:36
  TRACK 94 AUDIO
    TITLE "0:"
    INDEX 01 01:57:57
  TRACK 95 AUDIO
    TITLE "9:cjc041_5050"
    INDEX 01 01:58:36
  TRACK 96 AUDIO
    TITLE "0:"
    INDEX 01 01:59:50
